<svg viewBox="0 0 24 24" fill="none" xmlns="http://www.w3.org/2000/svg">
  <path
    d="M15.09 5.35587L6.9218 9.27619L3.67505 7.77865L11.6993 4.06433C11.8793 3.97856 12.0953 3.97856 12.2843 4.06433L15.09 5.35587Z"
  />
  <path
    d="M20.316 7.77869L12.0045 11.6385L8.89202 10.2008L8.44202 9.98633L16.6193 6.06671L17.0693 6.28044L20.316 7.77869Z"
  />
  <path
    d="M11.3385 12.7508L11.3295 20.8733L3.369 16.979C3.144 16.868 3 16.6451 3 16.4053V8.89093L6.3735 10.4489V13.1881C6.3735 13.5389 6.6795 13.83 7.0485 13.83C7.4175 13.83 7.7235 13.5389 7.7235 13.1881V11.0824L8.1735 11.2877L11.3385 12.7508Z"
  />
  <path
    d="M20.9911 8.89935L12.6886 12.7423L12.6796 20.8649L21.0001 16.792L20.9911 8.89935Z"
  />
</svg>
