<svg view-box="0 0 24 24" fill="none" xmlns="http://www.w3.org/2000/svg">
  <path
    d="M19.6537 11.7616C19.7086 11.4706 19.7363 11.1739 19.7363 10.875C19.7363 8.18678 17.4891 6 14.7266 6C12.9631 6 11.3286 6.91408 10.4306 8.36661C9.21834 7.9842 7.97459 8.14818 6.94992 8.8353C5.92526 9.52188 5.3137 10.6089 5.26423 11.7975C3.9172 12.4201 3 13.7457 3 15.2083C3 15.4622 3.0632 15.7098 3.11155 15.9499L3.11211 15.9505C3.47199 17.7178 5.07939 19 6.93359 19H18.0664C20.2147 19 22 17.2988 22 15.2083C22 13.7299 21.0703 12.399 19.6537 11.7616Z"
  />
</svg>
