<svg view-box="0 0 24 24" fill="none" xmlns="http://www.w3.org/2000/svg">
  <path
    d="M12 13.1449L5.67188 10.6039V12.4397C5.67188 14.444 8.39236 15.9553 12 15.9553C15.6076 15.9553 18.3281 14.444 18.3281 12.4397V10.6039L12 13.1449Z"
  />
  <path
    d="M24 16.6585C24 15.743 23.4104 14.9698 22.5938 14.6786V7.39452L24 6.81472L12 2L0 6.81472L12 11.6295L21.1875 7.95917V14.6786C20.3708 14.9698 19.7812 15.743 19.7812 16.6585C19.7812 17.4966 20.2762 18.216 20.986 18.556L19.8177 22.061L21.1511 22.5059L21.8906 20.2874L22.6301 22.5059L23.9636 22.061L22.7953 18.556C23.505 18.2161 24 17.4966 24 16.6585Z"
  />
</svg>
