<svg viewBox="0 0 24 24" fill="#787D85" xmlns="http://www.w3.org/2000/svg">
  <path
    d="M5.05944 5.00006C5.0589 5.00006 5.0583 5.00006 5.05776 5.00006C4.8686 5.00006 4.69069 5.06918 4.55634 5.19481C4.42052 5.32182 4.3457 5.49093 4.3457 5.67097V15.7311C4.3457 16.1 4.66712 16.4009 5.06227 16.4018C6.72814 16.4056 9.51912 16.731 11.4445 18.6198V8.09161C11.4445 7.96656 11.4104 7.84908 11.3461 7.75187C9.76586 5.36619 6.72908 5.00372 5.05944 5.00006Z"
  />
  <path
    d="M19.6544 15.7311V5.67091C19.6544 5.49087 19.5796 5.32176 19.4438 5.19474C19.3094 5.06912 19.1314 5 18.9424 5C18.9418 5 18.9412 5 18.9407 5C17.2711 5.00372 14.2343 5.3662 12.654 7.75187C12.5897 7.84908 12.5557 7.96656 12.5557 8.09161V18.6198C14.4811 16.731 17.272 16.4055 18.9379 16.4018C19.333 16.4008 19.6544 16.1 19.6544 15.7311Z"
  />
  <path
    d="M21.2844 7.32007H20.7655V15.7311C20.7655 16.673 19.9468 17.4411 18.9405 17.4434C17.5275 17.4465 15.1976 17.7056 13.5476 19.1695C16.4014 18.5145 19.4097 18.9403 21.1242 19.3066C21.3383 19.3523 21.5595 19.3051 21.731 19.1769C21.9019 19.0491 22 18.858 22 18.6529V7.99085C22 7.62099 21.6789 7.32007 21.2844 7.32007Z"
  />
  <path
    d="M3.23448 15.7311V7.32007H2.71556C2.32108 7.32007 2 7.62099 2 7.99085V18.6527C2 18.8579 2.09805 19.0489 2.26896 19.1767C2.44034 19.3048 2.66135 19.3522 2.87576 19.3064C4.59024 18.9401 7.59867 18.5143 10.4523 19.1693C8.80231 17.7054 6.47247 17.4465 5.05947 17.4433C4.05321 17.4411 3.23448 16.673 3.23448 15.7311Z"
  />
</svg>
