<?xml version="1.0" encoding="UTF-8"?><svg xmlns="http://www.w3.org/2000/svg" xmlns:xlink="http://www.w3.org/1999/xlink"><symbol viewBox="-64 0 384 384" preserveAspectRatio="xMidYMid" id="figma-svgrepo-com" xmlns="http://www.w3.org/2000/svg"><path d="M64 384c35.328 0 64-28.672 64-64v-64H64c-35.328 0-64 28.672-64 64s28.672 64 64 64z" fill="#0ACF83"/><path d="M0 192c0-35.328 28.672-64 64-64h64v128H64c-35.328 0-64-28.672-64-64z" fill="#A259FF"/><path d="M0 64C0 28.672 28.672 0 64 0h64v128H64C28.672 128 0 99.328 0 64z" fill="#F24E1E"/><path d="M128 0h64c35.328 0 64 28.672 64 64s-28.672 64-64 64h-64V0z" fill="#FF7262"/><path d="M256 192c0 35.328-28.672 64-64 64s-64-28.672-64-64 28.672-64 64-64 64 28.672 64 64z" fill="#1ABCFE"/></symbol><symbol viewBox="0 0 32 32" id="git-svgrepo-com" xmlns="http://www.w3.org/2000/svg"><path d="M29.472 14.753L17.247 2.528a1.8 1.8 0 00-2.55 0l-2.539 2.539 3.22 3.22a2.141 2.141 0 012.712 2.73l3.1 3.1a2.143 2.143 0 11-1.285 1.21l-2.895-2.895v7.617a2.141 2.141 0 11-1.764-.062V12.3a2.146 2.146 0 01-1.165-2.814l-3.17-3.172L2.528 14.7a1.8 1.8 0 000 2.551l12.225 12.221a1.8 1.8 0 002.55 0L29.472 17.3a1.8 1.8 0 000-2.551" fill="#dd4c35"/><path d="M12.158 5.067l3.22 3.22a2.141 2.141 0 012.712 2.73l3.1 3.1a2.143 2.143 0 11-1.285 1.21l-2.895-2.895v7.617a2.141 2.141 0 11-1.764-.062V12.3a2.146 2.146 0 01-1.165-2.814l-3.17-3.172" fill="#fff"/></symbol></svg>