<?xml version="1.0" encoding="utf-8"?><svg xmlns="http://www.w3.org/2000/svg" xmlns:xlink="http://www.w3.org/1999/xlink"><style>:root>svg{display:none}:root>svg:target{display:block}</style><svg viewBox="0 0 10 10" fill="#fff" id="arrow" xmlns="http://www.w3.org/2000/svg"><path d="M7.715 4.61 3.265.16A.543.543 0 0 0 2.878 0a.543.543 0 0 0-.386.16l-.328.327a.548.548 0 0 0 0 .774L5.9 4.998 2.16 8.739a.543.543 0 0 0-.16.387c0 .146.057.284.16.387l.327.327c.103.103.24.16.387.16a.543.543 0 0 0 .387-.16l4.454-4.454a.544.544 0 0 0 .16-.388.544.544 0 0 0-.16-.388Z"/></svg><svg fill="none" viewBox="0 0 24 24" id="book" xmlns="http://www.w3.org/2000/svg"><path d="M5.06 0h-.002a.73.73 0 0 0-.502.195.648.648 0 0 0-.21.476v10.06c0 .369.321.67.716.67 1.666.005 4.457.33 6.382 2.219V3.092a.613.613 0 0 0-.098-.34C9.766.366 6.73.004 5.06 0ZM19.654 10.731V.671c0-.18-.074-.35-.21-.476A.73.73 0 0 0 18.942 0h-.001c-1.67.004-4.707.366-6.287 2.752a.613.613 0 0 0-.098.34V13.62c1.925-1.889 4.716-2.214 6.382-2.218.395-.001.716-.302.716-.67Z" fill="#787D85"/><path d="M21.284 2.32h-.518v8.411c0 .942-.82 1.71-1.825 1.712-1.413.004-3.743.263-5.393 1.726 2.853-.655 5.862-.229 7.576.138a.75.75 0 0 0 .607-.13.652.652 0 0 0 .269-.524V2.99c0-.37-.321-.67-.716-.67ZM3.234 10.731v-8.41h-.518c-.395 0-.716.3-.716.67v10.662c0 .205.098.396.269.524a.75.75 0 0 0 .607.13c1.714-.367 4.723-.793 7.576-.138-1.65-1.464-3.98-1.723-5.393-1.726-1.006-.002-1.825-.77-1.825-1.712Z" fill="#787D85"/></svg><svg fill="none" viewBox="0 0 24 24" id="box" xmlns="http://www.w3.org/2000/svg"><path d="m15.09 1.356-8.168 3.92L3.675 3.78 11.7.064a.697.697 0 0 1 .585 0l2.806 1.292ZM20.316 3.779l-8.311 3.86L8.892 6.2l-.45-.215 8.177-3.92.45.214 3.247 1.499ZM11.338 8.75l-.008 8.123-7.961-3.894A.647.647 0 0 1 3 12.405V4.891l3.373 1.558v2.74c0 .35.306.641.675.641.37 0 .675-.291.675-.642V7.082l.45.206 3.165 1.463ZM20.991 4.9 12.69 8.741l-.01 8.123L21 12.792l-.009-7.893Z" fill="#787D85"/></svg><svg fill="#fff" viewBox="0 0 20 17" id="burger" xmlns="http://www.w3.org/2000/svg"><rect width="20" height="3" rx="1.5"/><rect y="7" width="20" height="3" rx="1.5"/><rect y="14" width="20" height="3" rx="1.5"/></svg><svg fill="none" viewBox="0 0 24 24" id="check" xmlns="http://www.w3.org/2000/svg"><g clip-path="url(#ea)"><path d="m23.297 7.368-12.661 12.66a2.402 2.402 0 0 1-3.397 0L.703 13.493A2.402 2.402 0 0 1 4.1 10.095l4.838 4.838L19.9 3.973a2.402 2.402 0 0 1 3.397 3.396Z" fill="#1DC37E"/></g><defs><clipPath id="ea"><path fill="#fff" d="M0 0h24v24H0z"/></clipPath></defs></svg><svg fill="none" viewBox="0 0 24 24" id="cloud" xmlns="http://www.w3.org/2000/svg"><path d="M19.654 5.762a4.78 4.78 0 0 0 .082-.887C19.736 2.187 17.49 0 14.726 0c-1.763 0-3.397.914-4.295 2.367-1.213-.383-2.456-.219-3.481.468S5.314 4.61 5.264 5.798C3.917 6.42 3 7.746 3 9.208c0 .254.063.502.112.742C3.472 11.718 5.08 13 6.934 13h11.132C20.215 13 22 11.299 22 9.208c0-1.478-.93-2.809-2.346-3.446Z" fill="#787D85"/></svg><svg fill="#fff" viewBox="0 0 19 19" id="cross" xmlns="http://www.w3.org/2000/svg"><rect y="16.51" width="23" height="3" rx="1.5" transform="rotate(-45 0 16.51)"/><rect x="2.253" width="23" height="3" rx="1.5" transform="rotate(45 2.253 0)"/></svg><svg fill="none" viewBox="0 0 24 24" id="hat" xmlns="http://www.w3.org/2000/svg"><path d="m12.172 10.978-6.5-2.374v1.715c0 1.873 2.794 3.285 6.5 3.285 3.705 0 6.5-1.412 6.5-3.285V8.604l-6.5 2.374Z" fill="#787D85"/><path d="M24 14.297c0-.893-.59-1.647-1.406-1.931V5.26L24 4.696 12 0 0 4.696l12 4.696 9.188-3.58v6.554c-.817.284-1.407 1.038-1.407 1.93 0 .818.495 1.52 1.205 1.852l-1.168 3.418L21.15 20l.74-2.164.74 2.164 1.333-.434-1.169-3.418c.71-.332 1.205-1.034 1.205-1.851Z" fill="#787D85"/></svg><svg fill="none" viewBox="0 0 80 20" id="junior" xmlns="http://www.w3.org/2000/svg"><circle cx="10" cy="10" r="10" fill="#FC836D"/><path d="M15.969 8.534a.643.643 0 0 0-.549-.457l-3.464-.328-1.369-3.345A.638.638 0 0 0 10 4a.636.636 0 0 0-.586.404L8.044 7.75l-3.464.328a.645.645 0 0 0-.549.457.685.685 0 0 0 .186.708l2.619 2.396-.772 3.548a.68.68 0 0 0 .248.687.617.617 0 0 0 .701.033L10 14.042l2.986 1.864c.22.136.495.124.702-.033a.68.68 0 0 0 .248-.687l-.772-3.548 2.619-2.396a.685.685 0 0 0 .186-.708Z" fill="#fff"/><circle cx="40" cy="10" r="10" fill="#BBB"/><path d="M45.969 8.534a.643.643 0 0 0-.549-.457l-3.464-.328-1.369-3.345A.638.638 0 0 0 40 4a.636.636 0 0 0-.587.404L38.045 7.75l-3.465.328a.645.645 0 0 0-.549.457.686.686 0 0 0 .186.708l2.619 2.396-.772 3.548a.68.68 0 0 0 .248.687.617.617 0 0 0 .701.033L40 14.042l2.986 1.864c.22.136.495.124.702-.033a.68.68 0 0 0 .248-.687l-.772-3.548 2.619-2.396a.685.685 0 0 0 .186-.708Z" fill="#fff"/><circle cx="70" cy="10" r="10" fill="#BBB"/><path d="M75.969 8.534a.643.643 0 0 0-.549-.457l-3.464-.328-1.369-3.345A.638.638 0 0 0 70 4a.636.636 0 0 0-.587.404L68.046 7.75l-3.465.328a.645.645 0 0 0-.549.457.686.686 0 0 0 .186.708l2.619 2.396-.772 3.548a.68.68 0 0 0 .248.687.617.617 0 0 0 .701.033L70 14.042l2.987 1.864c.219.136.494.124.701-.033a.68.68 0 0 0 .248-.687l-.772-3.548 2.619-2.396a.685.685 0 0 0 .186-.708Z" fill="#fff"/></svg><svg fill="none" viewBox="0 0 159 44" id="logo" xmlns="http://www.w3.org/2000/svg"><path d="M71.14 23.695c0 2.22-.37 4.16-1.11 5.82-.72 1.64-1.83 2.92-3.33 3.84-1.5.92-3.42 1.38-5.76 1.38-2.32 0-4.24-.46-5.76-1.38-1.5-.92-2.62-2.21-3.36-3.87-.72-1.66-1.08-3.6-1.08-5.82s.36-4.15 1.08-5.79c.74-1.64 1.86-2.91 3.36-3.81 1.52-.92 3.45-1.38 5.79-1.38 2.32 0 4.23.46 5.73 1.38 1.5.9 2.61 2.18 3.33 3.84.74 1.64 1.11 3.57 1.11 5.79Zm-15.63 0c0 2.24.43 4.01 1.29 5.31.86 1.28 2.24 1.92 4.14 1.92 1.94 0 3.33-.64 4.17-1.92.84-1.3 1.26-3.07 1.26-5.31 0-2.26-.42-4.03-1.26-5.31-.84-1.28-2.22-1.92-4.14-1.92-1.92 0-3.31.64-4.17 1.92-.86 1.28-1.29 3.05-1.29 5.31Zm46.084-10.68-5.46 21.42h-5.16l-2.91-11.25c-.06-.22-.14-.55-.24-.99-.08-.44-.18-.92-.3-1.44-.1-.52-.19-1.01-.27-1.47-.08-.48-.14-.85-.18-1.11-.02.26-.08.63-.18 1.11-.08.46-.17.95-.27 1.47-.1.5-.2.98-.3 1.44-.1.44-.18.78-.24 1.02l-2.88 11.22h-5.16l-5.46-21.42h4.47l2.73 11.7c.12.46.25 1.04.39 1.74s.27 1.4.39 2.1c.12.7.21 1.29.27 1.77.06-.5.15-1.09.27-1.77.12-.7.24-1.37.36-2.01.14-.66.26-1.17.36-1.53l3.12-12h4.29l3.12 12c.1.34.21.84.33 1.5a52.947 52.947 0 0 1 .66 3.81c.06-.5.15-1.09.27-1.77.12-.7.25-1.4.39-2.1.16-.7.29-1.28.39-1.74l2.73-11.7h4.47Zm2.694 21.42v-21.42h4.53v17.67h8.7v3.75h-13.23ZM128.352 32.835c.368 0 .704-.024 1.008-.072.32-.048.608-.12.864-.216v.792a5.586 5.586 0 0 1-.864.24c-.32.064-.68.096-1.08.096-1.104 0-1.896-.312-2.376-.936-.48-.624-.72-1.536-.72-2.736v-8.472h-1.92v-.624l1.92-.216.288-3.072h.648v3.096h4.032v.816h-4.032v8.4c0 .944.16 1.664.48 2.16.336.496.92.744 1.752.744Zm15.051-5.76c0 1.28-.208 2.416-.624 3.408-.4.992-1.016 1.776-1.848 2.352-.832.56-1.872.84-3.12.84-1.2 0-2.216-.28-3.048-.84-.816-.56-1.44-1.336-1.872-2.328-.416-.992-.624-2.136-.624-3.432 0-2.032.496-3.64 1.488-4.824 1.008-1.184 2.4-1.776 4.176-1.776 1.264 0 2.296.288 3.096.864.8.576 1.392 1.36 1.776 2.352.4.992.6 2.12.6 3.384Zm-10.176 0c0 1.712.376 3.104 1.128 4.176.752 1.056 1.904 1.584 3.456 1.584 1.072 0 1.952-.24 2.64-.72.688-.496 1.192-1.176 1.512-2.04.32-.864.48-1.864.48-3 0-1.088-.152-2.064-.456-2.928-.304-.864-.792-1.552-1.464-2.064-.656-.512-1.52-.768-2.592-.768-1.52 0-2.688.512-3.504 1.536-.8 1.008-1.2 2.416-1.2 4.224Zm19.225-6.6c1.664 0 2.936.552 3.816 1.656.896 1.104 1.344 2.72 1.344 4.848 0 2.144-.472 3.8-1.416 4.968-.944 1.152-2.256 1.728-3.936 1.728-1.2 0-2.16-.272-2.88-.816-.704-.544-1.2-1.2-1.488-1.968h-.048c.016.48.024.976.024 1.488.016.496.024.976.024 1.44v5.232h-.912V20.715h.768l.096 2.784h.048a4.496 4.496 0 0 1 .888-1.464c.4-.464.904-.84 1.512-1.128.608-.288 1.328-.432 2.16-.432Zm-.072.84c-1.488 0-2.608.496-3.36 1.488-.736.976-1.112 2.368-1.128 4.176v.144c0 1.936.376 3.376 1.128 4.32.752.928 1.816 1.392 3.192 1.392 1.408 0 2.496-.504 3.264-1.512.784-1.008 1.176-2.456 1.176-4.344 0-3.776-1.424-5.664-4.272-5.664ZM41 1.744a1.19 1.19 0 0 0-1.201-1.18 1.19 1.19 0 0 0-1.201 1.18c0 1.279-1.137 2.359-2.483 2.359h-5.418c-3.09-1.544-6.608-2.359-10.197-2.359-3.59 0-7.108.815-10.197 2.359H4.9c-1.353 0-2.497-1.08-2.497-2.36a1.19 1.19 0 0 0-1.2-1.178A1.19 1.19 0 0 0 0 1.744v3.538c0 2.188.882 4.25 2.484 5.812C.856 13.706 0 16.569 0 19.434c0 9.754 9.196 17.69 20.5 17.69S41 29.188 41 19.434c0-2.86-.854-5.72-2.477-8.33C40.053 9.612 41 7.553 41 5.283V1.744ZM20.5 4.103c1.914 0 3.802.258 5.6.757a10.807 10.807 0 0 0-5.593 4.998 10.804 10.804 0 0 0-5.598-5 20.943 20.943 0 0 1 5.591-.755Zm0 19.579c.45.732 1.01 1.39 1.661 1.952L20.5 28.71l-1.661-3.076a8.355 8.355 0 0 0 1.661-1.952Zm-7.207 1.649c-3.312 0-6.006-2.645-6.006-5.897 0-3.251 2.694-5.897 6.006-5.897 3.312 0 6.006 2.646 6.006 5.897 0 3.252-2.694 5.897-6.006 5.897Zm8.408-5.897c0-.094.003-.187.007-.28a1.15 1.15 0 0 0 .014-.172v-.022c.247-3.03 2.836-5.423 5.985-5.423 3.312 0 6.006 2.646 6.006 5.897 0 3.252-2.694 5.897-6.006 5.897-3.312 0-6.006-2.645-6.006-5.897ZM2.426 5.806A4.967 4.967 0 0 0 4.9 6.46h5.992c2.248 0 4.361.86 5.95 2.423a8.137 8.137 0 0 1 2.38 4.7 8.452 8.452 0 0 0-5.175-2.372 1.222 1.222 0 0 0-.28-.033H8.503a6.21 6.21 0 0 1-3.525-1.087 1.187 1.187 0 0 0-.396-.296c-1.202-.976-2.01-2.393-2.156-3.99Zm36.172 13.628c0 8.454-8.119 15.331-18.098 15.331-9.98 0-18.098-6.877-18.098-15.33 0-2.36.694-4.732 2.015-6.921a8.568 8.568 0 0 0 3.06.963c-1.596 1.504-2.592 3.618-2.592 5.957 0 4.552 3.772 8.255 8.408 8.255a8.49 8.49 0 0 0 3.526-.761l2.62 4.852c.208.386.616.627 1.061.627.445 0 .853-.241 1.061-.627l2.62-4.852a8.49 8.49 0 0 0 3.526.761c4.636 0 8.408-3.703 8.408-8.255 0-2.338-.995-4.452-2.591-5.956a8.593 8.593 0 0 0 3.064-.957c1.318 2.188 2.01 4.556 2.01 6.913Zm-2.2-9.619a1.196 1.196 0 0 0-.357.266 6.184 6.184 0 0 1-3.53 1.098h-5.263c-.093 0-.184.011-.272.031a8.452 8.452 0 0 0-5.18 2.358 8.138 8.138 0 0 1 2.378-4.684 8.431 8.431 0 0 1 5.95-2.423h5.991c.873 0 1.716-.226 2.458-.649-.148 1.606-.963 3.027-2.174 4.003Z" fill="#7653FC"/><path d="m13.5 16.683 1.01 2.591h3.27l-2.645 1.602 1.01 2.59-2.645-1.6-2.645 1.6 1.01-2.59-2.645-1.602h3.27l1.01-2.59ZM27.5 16.683l1.01 2.591h3.27l-2.645 1.602 1.01 2.59-2.645-1.6-2.645 1.6 1.01-2.59-2.645-1.602h3.27l1.01-2.59Z" fill="#7653FC"/></svg><svg fill="none" viewBox="0 0 80 20" id="middle" xmlns="http://www.w3.org/2000/svg"><circle cx="10" cy="10" r="10" fill="#FC836D"/><path d="M15.969 8.534a.643.643 0 0 0-.549-.457l-3.464-.328-1.369-3.345A.638.638 0 0 0 10 4a.636.636 0 0 0-.586.404L8.044 7.75l-3.464.328a.645.645 0 0 0-.549.457.685.685 0 0 0 .186.708l2.619 2.396-.772 3.548a.68.68 0 0 0 .248.687.617.617 0 0 0 .701.033L10 14.042l2.986 1.864c.22.136.495.124.702-.033a.68.68 0 0 0 .248-.687l-.772-3.548 2.619-2.396a.685.685 0 0 0 .186-.708Z" fill="#fff"/><circle cx="40" cy="10" r="10" fill="#FC836D"/><path d="M45.969 8.534a.643.643 0 0 0-.549-.457l-3.464-.328-1.369-3.345A.638.638 0 0 0 40 4a.636.636 0 0 0-.587.404L38.045 7.75l-3.465.328a.645.645 0 0 0-.549.457.686.686 0 0 0 .186.708l2.619 2.396-.772 3.548a.68.68 0 0 0 .248.687.617.617 0 0 0 .701.033L40 14.042l2.986 1.864c.22.136.495.124.702-.033a.68.68 0 0 0 .248-.687l-.772-3.548 2.619-2.396a.685.685 0 0 0 .186-.708Z" fill="#fff"/><circle cx="70" cy="10" r="10" fill="#BBB"/><path d="M75.969 8.534a.643.643 0 0 0-.549-.457l-3.464-.328-1.369-3.345A.638.638 0 0 0 70 4a.636.636 0 0 0-.587.404L68.046 7.75l-3.465.328a.645.645 0 0 0-.549.457.686.686 0 0 0 .186.708l2.619 2.396-.772 3.548a.68.68 0 0 0 .248.687.617.617 0 0 0 .701.033L70 14.042l2.987 1.864c.219.136.494.124.701-.033a.68.68 0 0 0 .248-.687l-.772-3.548 2.619-2.396a.685.685 0 0 0 .186-.708Z" fill="#fff"/></svg><svg viewBox="0 0 15 15" fill="#fff" id="search" xmlns="http://www.w3.org/2000/svg"><path d="M14.772 13.663 11.074 9.95a5.913 5.913 0 0 0 1.472-3.894C12.546 2.716 9.732 0 6.273 0 2.814 0 0 2.717 0 6.056c0 3.34 2.814 6.057 6.273 6.057a6.36 6.36 0 0 0 3.594-1.096l3.726 3.74a.827.827 0 0 0 .59.243.83.83 0 0 0 .566-.22.772.772 0 0 0 .023-1.117ZM6.272 1.58c2.558 0 4.637 2.008 4.637 4.476 0 2.469-2.08 4.477-4.636 4.477-2.557 0-4.637-2.008-4.637-4.477 0-2.468 2.08-4.476 4.637-4.476Z"/></svg><svg fill="none" viewBox="0 0 80 20" id="senior" xmlns="http://www.w3.org/2000/svg"><circle cx="10" cy="10" r="10" fill="#FC836D"/><path d="M15.969 8.534a.643.643 0 0 0-.549-.457l-3.464-.328-1.369-3.345A.638.638 0 0 0 10 4a.636.636 0 0 0-.586.404L8.044 7.75l-3.464.328a.645.645 0 0 0-.549.457.685.685 0 0 0 .186.708l2.619 2.396-.772 3.548a.68.68 0 0 0 .248.687.617.617 0 0 0 .701.033L10 14.042l2.986 1.864c.22.136.495.124.702-.033a.68.68 0 0 0 .248-.687l-.772-3.548 2.619-2.396a.685.685 0 0 0 .186-.708Z" fill="#fff"/><circle cx="40" cy="10" r="10" fill="#FC836D"/><path d="M45.969 8.534a.643.643 0 0 0-.549-.457l-3.464-.328-1.369-3.345A.638.638 0 0 0 40 4a.636.636 0 0 0-.587.404L38.045 7.75l-3.465.328a.645.645 0 0 0-.549.457.686.686 0 0 0 .186.708l2.619 2.396-.772 3.548a.68.68 0 0 0 .248.687.617.617 0 0 0 .701.033L40 14.042l2.986 1.864c.22.136.495.124.702-.033a.68.68 0 0 0 .248-.687l-.772-3.548 2.619-2.396a.685.685 0 0 0 .186-.708Z" fill="#fff"/><circle cx="70" cy="10" r="10" fill="#FC836D"/><path d="M75.969 8.534a.643.643 0 0 0-.549-.457l-3.464-.328-1.369-3.345A.638.638 0 0 0 70 4a.636.636 0 0 0-.587.404L68.046 7.75l-3.465.328a.645.645 0 0 0-.549.457.686.686 0 0 0 .186.708l2.619 2.396-.772 3.548a.68.68 0 0 0 .248.687.617.617 0 0 0 .701.033L70 14.042l2.987 1.864c.219.136.494.124.701-.033a.68.68 0 0 0 .248-.687l-.772-3.548 2.619-2.396a.685.685 0 0 0 .186-.708Z" fill="#fff"/></svg><svg viewBox="0 0 20 13" fill="#7653FC" id="sort" xmlns="http://www.w3.org/2000/svg"><rect width="20" height="3" rx="1.5"/><rect y="5" width="14" height="3" rx="1.5"/><rect y="10" width="8" height="3" rx="1.5"/></svg><svg fill="none" viewBox="0 0 30 30" id="user" xmlns="http://www.w3.org/2000/svg"><path d="M15 0C6.729 0 0 6.729 0 15s6.729 15 15 15 15-6.729 15-15S23.271 0 15 0Zm0 27.625C8.038 27.625 2.375 21.961 2.375 15S8.038 2.375 15 2.375c6.961 0 12.625 5.664 12.625 12.625 0 6.962-5.664 12.625-12.625 12.625Z" fill="#7653FC"/><path d="M15 17.662c-4.219 0-8.166 2.115-11.113 5.956l1.883 1.445c2.489-3.241 5.767-5.027 9.23-5.027s6.741 1.786 9.23 5.027l1.883-1.445C23.165 19.777 19.22 17.662 15 17.662Z" fill="#7653FC"/><path d="M15 5.383c-3.405 0-6.174 2.787-6.174 6.213 0 3.427 2.77 6.214 6.174 6.214 3.404 0 6.174-2.787 6.174-6.214 0-3.426-2.77-6.213-6.174-6.213Zm0 10.052c-2.095 0-3.8-1.722-3.8-3.839s1.705-3.839 3.8-3.839c2.095 0 3.8 1.723 3.8 3.84 0 2.116-1.705 3.838-3.8 3.838Z" fill="#7653FC"/></svg></svg>