<svg width="80" height="20" viewBox="0 0 80 20" fill="none" xmlns="http://www.w3.org/2000/svg">
<circle cx="10" cy="10" r="10" fill="#FC836D"/>
<path d="M15.9686 8.53412C15.8896 8.28056 15.6741 8.10105 15.4201 8.07707L11.9561 7.7489L10.5871 4.40432C10.486 4.15859 10.256 4 10 4C9.74402 4 9.51395 4.15859 9.41351 4.40432L8.0445 7.7489L4.57991 8.07707C4.32594 8.10152 4.11088 8.28104 4.03141 8.53412C3.9524 8.78768 4.02537 9.06579 4.21745 9.24157L6.83599 11.6376L6.06391 15.186C6.00742 15.4469 6.10447 15.7167 6.31193 15.8732C6.42345 15.9578 6.55446 16 6.68593 16C6.79891 16 6.91198 15.9687 7.01296 15.9056L10 14.0419L12.9865 15.9056C13.2056 16.0422 13.4811 16.0297 13.6881 15.8732C13.8955 15.7167 13.9926 15.4469 13.9361 15.186L13.164 11.6376L15.7826 9.24157C15.9746 9.06579 16.0476 8.78825 15.9686 8.53412Z" fill="white"/>
<circle cx="40" cy="10" r="10" fill="#BBBBBB"/>
<path d="M45.9686 8.53412C45.8896 8.28056 45.6741 8.10105 45.4201 8.07707L41.9561 7.7489L40.5871 4.40432C40.486 4.15859 40.256 4 40 4C39.744 4 39.5139 4.15859 39.4135 4.40432L38.0445 7.7489L34.5799 8.07707C34.3259 8.10152 34.1109 8.28104 34.0314 8.53412C33.9524 8.78768 34.0254 9.06579 34.2174 9.24157L36.836 11.6376L36.0639 15.186C36.0074 15.4469 36.1045 15.7167 36.3119 15.8732C36.4234 15.9578 36.5545 16 36.6859 16C36.7989 16 36.912 15.9687 37.013 15.9056L40 14.0419L42.9865 15.9056C43.2056 16.0422 43.4811 16.0297 43.6881 15.8732C43.8955 15.7167 43.9926 15.4469 43.9361 15.186L43.164 11.6376L45.7826 9.24157C45.9746 9.06579 46.0476 8.78825 45.9686 8.53412Z" fill="white"/>
<circle cx="70" cy="10" r="10" fill="#BBBBBB"/>
<path d="M75.9686 8.53412C75.8896 8.28056 75.6741 8.10105 75.4201 8.07707L71.9561 7.7489L70.5871 4.40432C70.486 4.15859 70.256 4 70 4C69.744 4 69.5139 4.15859 69.4135 4.40432L68.0445 7.7489L64.5799 8.07707C64.3259 8.10152 64.1109 8.28104 64.0314 8.53412C63.9524 8.78768 64.0254 9.06579 64.2174 9.24157L66.836 11.6376L66.0639 15.186C66.0074 15.4469 66.1045 15.7167 66.3119 15.8732C66.4234 15.9578 66.5545 16 66.6859 16C66.7989 16 66.912 15.9687 67.013 15.9056L70 14.0419L72.9865 15.9056C73.2056 16.0422 73.4811 16.0297 73.6881 15.8732C73.8955 15.7167 73.9926 15.4469 73.9361 15.186L73.164 11.6376L75.7826 9.24157C75.9746 9.06579 76.0476 8.78825 75.9686 8.53412Z" fill="white"/>
</svg>
