<svg viewBox="0 0 10 10" fill="#ffffff" xmlns="http://www.w3.org/2000/svg">
  <path
    d="M7.7154 4.6098L3.26527 0.159755C3.16235 0.0567475 3.02495 0 2.87845 0C2.73195 0 2.59455 0.0567475 2.49162 0.159755L2.1639 0.487394C1.95065 0.700889 1.95065 1.04788 2.1639 1.26105L5.90078 4.99793L2.15975 8.73895C2.05683 8.84196 2 8.97928 2 9.1257C2 9.27228 2.05683 9.4096 2.15975 9.51269L2.48748 9.84025C2.59048 9.94325 2.7278 10 2.8743 10C3.0208 10 3.1582 9.94325 3.26113 9.84025L7.7154 5.38614C7.81857 5.2828 7.87524 5.14484 7.87491 4.99817C7.87524 4.85094 7.81857 4.71305 7.7154 4.6098Z"
  />
</svg>
