<svg width="24" height="24" viewBox="0 0 24 24" fill="none" xmlns="http://www.w3.org/2000/svg">
<path d="M5.05944 6.10352e-05C5.0589 6.10352e-05 5.0583 6.10352e-05 5.05776 6.10352e-05C4.8686 6.10352e-05 4.69069 0.0691844 4.55634 0.194806C4.42052 0.321816 4.3457 0.490932 4.3457 0.670969V10.7311C4.3457 11.1 4.66712 11.4009 5.06227 11.4018C6.72814 11.4056 9.51912 11.731 11.4445 13.6198V3.09161C11.4445 2.96656 11.4104 2.84908 11.3461 2.75187C9.76586 0.366194 6.72908 0.00372237 5.05944 6.10352e-05Z" fill="#787D85"/>
<path d="M19.6544 10.7311V0.670907C19.6544 0.490871 19.5796 0.321755 19.4438 0.194745C19.3094 0.0691233 19.1314 0 18.9424 0C18.9418 0 18.9412 0 18.9407 0C17.2711 0.00372446 14.2343 0.366196 12.654 2.75187C12.5897 2.84908 12.5557 2.96656 12.5557 3.09161V13.6198C14.4811 11.731 17.272 11.4055 18.9379 11.4018C19.333 11.4008 19.6544 11.1 19.6544 10.7311Z" fill="#787D85"/>
<path d="M21.2844 2.32007H20.7655V10.7311C20.7655 11.673 19.9468 12.4411 18.9405 12.4434C17.5275 12.4465 15.1976 12.7056 13.5476 14.1695C16.4014 13.5145 19.4097 13.9403 21.1242 14.3066C21.3383 14.3523 21.5595 14.3051 21.731 14.1769C21.9019 14.0491 22 13.858 22 13.6529V2.99085C22 2.62099 21.6789 2.32007 21.2844 2.32007Z" fill="#787D85"/>
<path d="M3.23448 10.7311V2.32007H2.71556C2.32108 2.32007 2 2.62099 2 2.99085V13.6527C2 13.8579 2.09805 14.0489 2.26896 14.1767C2.44034 14.3048 2.66135 14.3522 2.87576 14.3064C4.59024 13.9401 7.59867 13.5143 10.4523 14.1693C8.80231 12.7054 6.47247 12.4465 5.05947 12.4433C4.05321 12.4411 3.23448 11.673 3.23448 10.7311Z" fill="#787D85"/>
</svg>
