<svg width="24" height="24" viewBox="0 0 24 24" fill="none" xmlns="http://www.w3.org/2000/svg">
<path d="M15.09 1.35587L6.9218 5.27619L3.67505 3.77865L11.6993 0.0643309C11.8793 -0.0214436 12.0953 -0.0214436 12.2843 0.0643309L15.09 1.35587Z" fill="#787D85"/>
<path d="M20.316 3.77869L12.0045 7.63854L8.89202 6.20076L8.44202 5.98633L16.6193 2.06671L17.0693 2.28044L20.316 3.77869Z" fill="#787D85"/>
<path d="M11.3385 8.75078L11.3295 16.8733L3.369 12.979C3.144 12.868 3 12.6451 3 12.4053V4.89093L6.3735 6.44893V9.18809C6.3735 9.53892 6.6795 9.83 7.0485 9.83C7.4175 9.83 7.7235 9.53892 7.7235 9.18809V7.0824L8.1735 7.2877L11.3385 8.75078Z" fill="#787D85"/>
<path d="M20.9911 4.89935L12.6886 8.74233L12.6796 16.8649L21.0001 12.792L20.9911 4.89935Z" fill="#787D85"/>
</svg>
