<svg width="24" height="24" viewBox="0 0 24 24" fill="none" xmlns="http://www.w3.org/2000/svg">
<path d="M19.6537 5.76156C19.7086 5.47062 19.7363 5.17386 19.7363 4.875C19.7363 2.18678 17.4891 0 14.7266 0C12.9631 0 11.3286 0.914081 10.4306 2.36661C9.21834 1.9842 7.97459 2.14818 6.94992 2.8353C5.92526 3.52188 5.3137 4.60893 5.26423 5.79753C3.9172 6.42012 3 7.74573 3 9.20833C3 9.46223 3.0632 9.70981 3.11155 9.94995L3.11211 9.95049C3.47199 11.7178 5.07939 13 6.93359 13H18.0664C20.2147 13 22 11.2988 22 9.20833C22 7.72987 21.0703 6.39896 19.6537 5.76156Z" fill="#787D85"/>
</svg>
