<svg width="24" height="24" viewBox="0 0 24 24" fill="none" xmlns="http://www.w3.org/2000/svg">
<path d="M12.1719 10.978L5.67188 8.60388V10.3191C5.67188 12.1918 8.46625 13.6039 12.1719 13.6039C15.8775 13.6039 18.6719 12.1918 18.6719 10.3191V8.60388L12.1719 10.978Z" fill="#787D85"/>
<path d="M24 14.2968C24 13.4039 23.4104 12.6498 22.5938 12.3658V5.26142L24 4.69593L12 0L0 4.69593L12 9.3919L21.1875 5.81214V12.3658C20.3708 12.6498 19.7812 13.4039 19.7812 14.2968C19.7812 15.1143 20.2762 15.8159 20.986 16.1475L19.8177 19.566L21.1511 20L21.8906 17.8362L22.6301 20L23.9636 19.566L22.7953 16.1475C23.505 15.816 24 15.1143 24 14.2968Z" fill="#787D85"/>
</svg>
